<!DOCTYPE svg PUBLIC "-//W3C//DTD SVG 1.1//EN" "http://www.w3.org/Graphics/SVG/1.1/DTD/svg11.dtd">
<!-- Uploaded to: SVG Repo, www.svgrepo.com, Transformed by: SVG Repo Mixer Tools -->
<svg fill="#000000" width="800px" height="800px" viewBox="-3.2 -3.2 38.40 38.40" version="1.1" xmlns="http://www.w3.org/2000/svg">
<g id="SVGRepo_bgCarrier" stroke-width="0">
<path transform="translate(-3.2, -3.2), scale(1.2)" d="M16,27.459145363420248C18.43988608837544,28.175894190730617,20.549956292636043,31.282813799577713,22.935155523219144,30.400998832521367C25.207219609575695,29.561010251370178,24.588898729682132,25.91694217294592,25.817836351804466,23.829463226966364C26.853428328139803,22.070402060385707,29.450195126095224,21.137899412782236,29.587519990353307,19.101262770943855C29.730664789619517,16.978311877460595,27.397273759988284,15.534522727646248,26.50746388963472,13.601739934800733C25.806697132054737,12.079583375320713,25.46590485806945,10.48223960418363,24.89431819147191,8.907017930048482C24.109134349569118,6.743149039774211,24.18890699099223,4.0779850353417135,22.48860656959571,2.5262696242946845C20.813810731766953,0.9978300149097696,18.152891158730398,0.07852499333724672,16.000000000000004,0.7899520075879991C13.695279337570462,1.5515513726581749,13.486286610754888,5.185974079153498,11.293027216917134,6.225870302844786C9.079171209029546,7.275532056883931,5.41346256842165,4.433135616476454,4.038711912719004,6.461191053637293C2.5976772189238315,8.587029825756293,6.24948422753216,11.19255895649929,6.185897124444047,13.759995061660746C6.139051424930382,15.651468874145353,4.043214477932968,16.933364216884662,3.7331235511421177,18.799834500602024C3.3688148193671363,20.992647521588566,2.7915608768899043,23.693396189896408,4.25805371120183,25.36388969900304C5.7476581217923615,27.060709786225377,8.561082821368084,26.43475982079544,10.783873227181857,26.83139885099068C12.529782275216629,27.142942246989858,14.298414175371393,26.959282009068914,16,27.459145363420248" fill="#f5b8ad" strokewidth="0"/>
</g>
<g id="SVGRepo_tracerCarrier" stroke-linecap="round" stroke-linejoin="round"/>
<g id="SVGRepo_iconCarrier"> <title>css3</title> <path d="M24.235 6.519l-16.47-0.004 0.266 3.277 12.653 0.002-0.319 3.394h-8.298l0.3 3.215h7.725l-0.457 4.403-3.636 1.005-3.694-1.012-0.235-2.637h-3.262l0.362 4.817 6.829 2.128 6.714-1.912 1.521-16.675zM2.879 1.004h26.242l-2.387 26.946-10.763 3.045-10.703-3.047z"/> </g>
</svg>