<!DOCTYPE svg PUBLIC "-//W3C//DTD SVG 1.1//EN" "http://www.w3.org/Graphics/SVG/1.1/DTD/svg11.dtd">
<!-- Uploaded to: SVG Repo, www.svgrepo.com, Transformed by: SVG Repo Mixer Tools -->
<svg width="800px" height="800px" viewBox="-2 -2 24.00 24.00" version="1.1" xmlns="http://www.w3.org/2000/svg" xmlns:xlink="http://www.w3.org/1999/xlink" fill="#e8c9bf" stroke="#e8c9bf">
<g id="SVGRepo_bgCarrier" stroke-width="0">
<path transform="translate(-2, -2), scale(0.75)" d="M16,31.871383941835827C18.177316940451117,32.21587134323912,20.681919535679153,31.676944393522852,22.326047906861145,30.208536232289926C24.018054380689094,28.69736705683089,24.0393026038453,26.086986632071493,24.84926032803308,23.967909788405414C25.432210008916336,22.44274973018015,25.602428741714995,20.788654702452163,26.458060898898303,19.398029970455273C27.608767870040275,17.527831942112076,30.767080443348476,16.649598998082087,30.702610787718115,14.454693336748004C30.6406610320228,12.345579085021235,27.466427898480365,11.796133732004218,26.185524777220287,10.119384528034267C25.088015464416678,8.682704551188921,24.816003836536932,6.798136513059349,23.74239206547576,5.343511539879703C22.45188872720436,3.5950225288419166,21.41921675534775,0.8097684781839403,19.247926419871327,0.7197075717028323C16.889277521187946,0.6218753958692476,15.962615879068233,4.471382032742852,13.645878211532203,4.924727752595121C11.272060800062704,5.389242996716412,8.895444918371947,2.197329675137973,6.684398124376763,3.1781740000848195C4.684383717138472,4.065402070734093,5.20993033342078,7.243957277881068,4.12923814137902,9.146412445439227C3.0568559751742725,11.034238607890668,0.4228227866249099,12.184243784433058,0.33614688413982385,14.353662696943621C0.24777397015990707,16.565556261878662,2.24968057840066,18.321800150474722,3.6956825101547572,19.99791510115375C4.876180397463676,21.366274378352816,6.840488325002703,21.818261424468975,7.983545229503429,23.21804829628582C9.20033826215252,24.7081323910618,9.199154096683618,26.927235202157526,10.506547389964698,28.338496577839358C12.002464246883049,29.953259092110844,13.825856641877685,31.527398653427326,16,31.871383941835827" fill="#f5b8ad" strokewidth="0"/>
</g>
<g id="SVGRepo_tracerCarrier" stroke-linecap="round" stroke-linejoin="round" stroke="#CCCCCC" stroke-width="0.04"/>
<g id="SVGRepo_iconCarrier"> <title>html [#124]</title> <desc>Created with Sketch.</desc> <defs> </defs> <g id="Page-1" stroke="none" stroke-width="1" fill="none" fill-rule="evenodd"> <g id="Dribbble-Light-Preview" transform="translate(-61.000000, -7639.000000)" fill="#000000"> <g id="icons" transform="translate(56.000000, 160.000000)"> <path d="M19.4350881,7485 L19.4279481,7485 L10.8119794,7485 L11.0180201,7487 L19.2300674,7487 C19.109707,7488.752 18.7455658,7492.464 18.6119454,7494.153 L13.99949,7495.451 L13.99949,7495.455 L13.98929,7495.46 L9.37377458,7493.836 L9.05757353,7490 L11.3199411,7490 L11.4800816,7492.063 L13.99337,7493 L13.99949,7493 L16.5086984,7492.1 L16.7667592,7489 L8.95659319,7489 C8.91885306,7488.599 8.43333144,7483.392 8.34867116,7483 L19.6370488,7483 C19.5738086,7483.66 19.5095484,7484.338 19.4350881,7485 L19.4350881,7485 Z M5,7479 L6.63812546,7497.148 L13.98929,7499 L21.3598345,7497.111 L23,7479 L5,7479 Z" id="html-[#124]"> </path> </g> </g> </g> </g>
</svg>