<!DOCTYPE svg PUBLIC "-//W3C//DTD SVG 1.1//EN" "http://www.w3.org/Graphics/SVG/1.1/DTD/svg11.dtd">
<!-- Uploaded to: SVG Repo, www.svgrepo.com, Transformed by: SVG Repo Mixer Tools -->
<svg fill="#000000" version="1.1" xmlns="http://www.w3.org/2000/svg" xmlns:xlink="http://www.w3.org/1999/xlink" width="800px" height="800px" viewBox="-51.2 -51.2 614.40 614.40" enable-background="new 0 0 512 512" xml:space="preserve">
<g id="SVGRepo_bgCarrier" stroke-width="0">
<path transform="translate(-51.2, -51.2), scale(19.2)" d="M16,31.26692142231124C18.11099214617157,30.627214584463246,18.976201621134894,28.0447412837498,20.831441327122537,26.85159489167781C22.367983747607006,25.863409893615447,24.343173571354193,25.876356356247953,25.890935474562326,24.905838303184893C27.682575150681085,23.78239764564373,30.22895918249842,22.82296292142389,30.581544278384136,20.737830937539247C30.95579387988993,18.524578525109543,27.928409617758675,17.001437733079946,27.603083734213914,14.780466757391839C27.295895838186794,12.683322215048467,29.254706810378565,10.67841709593456,28.80466360073041,8.607224023235698C28.350335742096174,6.516312098860655,27.118725839884014,4.229623007159859,25.135823348913704,3.425617913936776C23.028952329531094,2.5713474502798253,20.735816020816962,4.4545159807597585,18.462705278836953,4.413882594412154C16.670838981575734,4.381851776821435,15.063395252483001,3.411543284041911,13.282193624593424,3.2137262945297014C11.052734433587139,2.9661266412957596,8.617753683492388,2.0652836903250034,6.627204367086756,3.0994535465870356C4.6842326814731985,4.1089049237880335,3.823055873017145,6.475958856670909,3.055876120781674,8.526706593909427C2.3379370321477317,10.44582914270063,2.629288223530168,12.535848204829716,2.3383085588224475,14.564098368639385C2.036834720975054,16.665497315581263,0.8912599466070286,18.693328378551104,1.2984319032816956,20.776829040133094C1.7120587952771704,22.89335963364165,3.1927768369485054,24.629845869141462,4.621175704219484,26.24553941527529C6.056277334400395,27.868814604760274,7.679249615194672,29.36173429592362,9.661507043681096,30.236488271025078C11.641501272869036,31.110243514804186,13.928797027583869,31.8945707039197,16,31.26692142231124" fill="#f5b8ad" strokewidth="0"/>
</g>
<g id="SVGRepo_tracerCarrier" stroke-linecap="round" stroke-linejoin="round"/>
<g id="SVGRepo_iconCarrier"> <g id="5151e0c8492e5103c096af88a51e75c7"> <path display="inline" fill-rule="evenodd" clip-rule="evenodd" d="M1.008,0.5C0.438,0.583,0.48,1.27,0.521,1.958 c0,169.668,0,339.31,0,508.974c169.364,1.135,340.808,0.162,510.979,0.486c0-170.309,0-340.61,0-510.918 C341.342,0.5,171.167,0.5,1.008,0.5z M259.893,452.167c-11.822,11.919-30.478,18.938-53.429,18.938 c-37.643,0-58.543-18.34-71.884-43.711c12.842-8.2,25.966-16.122,39.344-23.795c5.456,15.262,23.886,32.42,44.683,21.857 c13.183-6.699,11.661-27.01,11.661-49.054c0-45.773,0-98.578,0-139.872c-0.042-0.688-0.083-1.375,0.482-1.458 c15.707,0,31.413,0,47.116,0c0,36.788,0,78.402,0,117.529C277.866,395.199,280.91,430.988,259.893,452.167z M470.696,409.917 c-2.674,39.884-35.243,61.063-79.17,61.188c-43.062,0.124-70.624-19.013-87.433-48.567c12.085-8.317,25.778-15.017,38.375-22.822 c10.08,15.761,27.537,30.91,53.429,28.652c16.131-1.406,34.856-14.555,24.285-34.482c-5.127-9.66-17.516-14.567-28.656-19.425 c-35.352-15.424-76.828-29.571-72.861-84.992c1.327-18.514,9.852-31.525,20.889-40.796c11.311-9.5,26.46-15.867,46.629-16.511 c36.629-1.173,56.723,15.12,70.429,37.884c-11.664,8.891-24.514,16.608-37.401,24.281c-4.229-12.995-24.644-25.658-41.772-17.969 c-7.789,3.493-14.788,13.761-10.684,26.224c3.66,11.115,18.589,17.199,30.599,22.344 C433.706,340.486,474.331,355.693,470.696,409.917z"> </path> </g> </g>
</svg>